<svg width="168" height="24" viewBox="0 0 168 24" fill="none" xmlns="http://www.w3.org/2000/svg">
<path d="M11.9999 18.26L4.94691 22.208L6.52191 14.28L0.586914 8.792L8.61391 7.84L11.9999 0.5L15.3859 7.84L23.4129 8.792L17.4779 14.28L19.0529 22.208L11.9999 18.26Z" fill="#05B9FF"/>
<path d="M47.9999 18.26L40.9469 22.208L42.5219 14.28L36.5869 8.792L44.6139 7.84L47.9999 0.5L51.3859 7.84L59.4129 8.792L53.4779 14.28L55.0529 22.208L47.9999 18.26Z" fill="#05B9FF"/>
<path d="M83.9999 18.26L76.9469 22.208L78.5219 14.28L72.5869 8.792L80.6139 7.84L83.9999 0.5L87.3859 7.84L95.4129 8.792L89.4779 14.28L91.0529 22.208L83.9999 18.26Z" fill="#05B9FF"/>
<path d="M120 18.26L112.947 22.208L114.522 14.28L108.587 8.792L116.614 7.84L120 0.5L123.386 7.84L131.413 8.792L125.478 14.28L127.053 22.208L120 18.26Z" fill="#05B9FF"/>
<path d="M156 18.26L148.947 22.208L150.522 14.28L144.587 8.792L152.614 7.84L156 0.5L159.386 7.84L167.413 8.792L161.478 14.28L163.053 22.208L156 18.26Z" fill="#05B9FF"/>
</svg>
